/* XPM */
static char *openfile[] = {
	//1_1
	"16 16 38 1",
	". c None",
	"! c #A09EB7",
	"# c #ACAABB",
	"$ c #B5B3BD",
	"% c #7E7CAA",
	"& c #24278A",
	"' c #6869A3",
	"( c #585AA6",
	") c #9391B1",
	"= c #6363A0",
	"~ c #383991",
	"| c #1E2188",
	"- c #2B2E8D",
	"^ c #B1AEBD",
	"@ c #9493B2",
	"` c #8281AC",
	"[ c #6F6FA5",
	"] c #696AA3",
	"{ c #ADABBB",
	"} c #B2AFBD",
	"; c #9290B1",
	": c #9897B3",
	"+ c #424595",
	"* c #464897",
	", c #8382AD",
	"< c #B8B5BF",
	"> c #21248A",
	"? c #8F8DB0",
	"/ c #9E9CB6",
	"_ c #9F9DB5",
	"1 c #8C8CB0",
	"2 c #404195",
	"3 c #BEBBC1",
	"4 c #9392B2",
	"5 c #B6B3BE",
	"6 c #ABA8BA",
	"7 c #8988AE",
	"8 c #8A88AF",
	"................",
	".....!#.........",
	"...$%&'....()...",
	"..=~|-^...@(....",
	"..`[|]...{(}....",
	"...;|^...(:.....",
	"...+*...(,......",
	"..<>?../(....!#.",
	"..,|_.<($..$%&'.",
	"..123.(_..=~|-^.",
	".....(`...`[|]..",
	"....4(.....;|^..",
	"...5(......+*...",
	"...(6.....<>?...",
	"..78......,|_...",
	"..........12....",
};
