/* XPM */
static char *openfile[] = {
	//1_2
	"16 16 74 1",
	". c None",
	"! c #A09EB7",
	"# c #ACAABB",
	"$ c #B5B3BD",
	"% c #7E7CAA",
	"& c #24278A",
	"' c #6869A3",
	"( c #585AA6",
	") c #9391B1",
	"= c #6363A0",
	"~ c #383991",
	"| c #1E2188",
	"- c #2B2E8D",
	"^ c #B1AEBD",
	"@ c #9493B2",
	"` c #8281AC",
	"[ c #6F6FA5",
	"] c #696AA3",
	"{ c #ADABBB",
	"} c #B2AFBD",
	"; c #9290B1",
	": c #9897B3",
	"+ c #424595",
	"* c #464897",
	", c #8382AD",
	"< c #B9B7BF",
	"> c #9593B2",
	"? c #BBB9C0",
	"/ c #B8B5BF",
	"_ c #21248A",
	"1 c #8F8DB0",
	"2 c #9E9CB6",
	"3 c #7B7BA9",
	"4 c #333591",
	"5 c #27298B",
	"6 c #414394",
	"7 c #9F9DB5",
	"8 c #7171A5",
	"9 c #202389",
	"0 c #8686AE",
	"A c #6868A3",
	"B c #ACAABA",
	"C c #8C8CB0",
	"D c #404195",
	"E c #BEBBC1",
	"F c #8B8AAF",
	"G c #9392B2",
	"H c #434496",
	"I c #373A91",
	"J c #BEBAC1",
	"K c #282A8C",
	"L c #A19FB7",
	"M c #B3B1BD",
	"N c #464796",
	"O c #353891",
	"P c #ABA8BA",
	"Q c #B6B3BE",
	"R c #A4A3B8",
	"S c #3B3D93",
	"T c #2E318E",
	"U c #A5A2B8",
	"V c #9F9EB6",
	"W c #323490",
	"X c #53549B",
	"Y c #3E4094",
	"Z c #53559C",
	"a c #8988AE",
	"b c #8A88AF",
	"c c #A4A2B8",
	"d c #5B5C9E",
	"e c #7776A8",
	"f c #7372A7",
	"g c #6464A1",
	"h c #8787AD",
	"................",
	".....!#.........",
	"...$%&'....()...",
	"..=~|-^...@(....",
	"..`[|]...{(}....",
	"...;|^...(:.....",
	"...+*...(,.<>?..",
	"../_1..2(.3456..",
	"..,|7./($890A|B.",
	"..CDE.(7.FG.HI..",
	".....(`...JHKL..",
	"....G(...MNOP...",
	"...Q(...RSTU.?..",
	"...(P..V5|WXYZ..",
	"..ab...cdefgXh..",
	"................",
};
