/* XPM */
static char *openfile[] = {
	//1_4
	"16 16 46 1",
	". c None",
	"! c #BEBAC1",
	"# c #8787AD",
	"$ c #202389",
	"% c #8686AE",
	"& c #6F6FA5",
	"' c #ABA8BA",
	"( c #7B7BA9",
	") c #3E4094",
	"= c #2B2E8D",
	"~ c #B1AEBD",
	"| c #BBB9C0",
	"- c #6869A3",
	"^ c #9F9DB5",
	"@ c #6363A0",
	"` c #1E2188",
	"[ c #696AA3",
	"] c #9897B3",
	"{ c #27298B",
	"} c #A19FB7",
	"; c #7372A7",
	": c #9E9CB6",
	"+ c #53559C",
	"* c #53549B",
	", c #8C8CB0",
	"< c #B9B7BF",
	"> c #2E318E",
	"? c #9290B1",
	"/ c #A5A2B8",
	"_ c #8B8AAF",
	"1 c #6464A1",
	"2 c #5B5C9E",
	"3 c #A4A2B8",
	"4 c #414394",
	"5 c #B5B3BD",
	"6 c #333591",
	"7 c #585AA6",
	"8 c #8281AC",
	"9 c #21248A",
	"0 c #464897",
	"A c #9593B2",
	"B c #323490",
	"C c #7E7CAA",
	"D c #ADABBB",
	"E c #6868A3",
	"F c #7171A5",
	"................",
	".....!!.........",
	"....#$%....&'...",
	"..()$=~...|-....",
	"..^@`[....&|....",
	"...]{}...;:.....",
	"...+*...-,......",
	"..<>%..'-...?>#.",
	"../`_..1...2{=].",
	"..345.1/.:6*=+..",
	".....7?.890A`1..",
	"....:1..&6)B9>C.",
	"....1~...D,`+D|.",
	"...E].....|`F...",
	"..},......($<...",
	"................",
};
