/* XPM */
static char *openfile[] = {
	//1_8
	"16 16 42 1",
	". c None",
	"! c #8F8DB0",
	"# c #282A8C",
	"$ c #5B5C9E",
	"% c #7372A7",
	"& c #9E9CB6",
	"' c #3B3D93",
	"( c #1E2188",
	") c #2B2E8D",
	"= c #A5A2B8",
	"~ c #585AA6",
	"| c #8686AE",
	"- c #696AA3",
	"^ c #6464A1",
	"@ c #A4A3B8",
	"` c #9593B2",
	"[ c #7B7BA9",
	"] c #202389",
	"{ c #24278A",
	"} c #2E318E",
	"; c #9F9DB5",
	": c #9897B3",
	"+ c #424595",
	"* c #464897",
	", c #A19FB7",
	"< c #404195",
	"> c #6F6FA5",
	"? c #8A88AF",
	"/ c #6363A0",
	"_ c #6868A3",
	"1 c #7776A8",
	"2 c #323490",
	"3 c #6869A3",
	"4 c #3E4094",
	"5 c #464796",
	"6 c #21248A",
	"7 c #A09EB7",
	"8 c #8382AD",
	"9 c #53549B",
	"0 c #7E7CAA",
	"A c #383991",
	"B c #A4A2B8",
	"................",
	"................",
	"....!#$....%&...",
	"..%'()....=~....",
	"..|%(-....^.....",
	"...=(@...%`.....",
	"...$'...%[..`...",
	"...]!...~..${}&.",
	"..;]:..^..+*,}<.",
	"..='..>`.:(?=)/.",
	"....._1...2](3..",
	"....@^.../456,..",
	"....^...1(=.)1..",
	"...%7...8(_9}=..",
	"...0.....>A9B...",
	"................",
};
