/* XPM */
static char *openfile[] = {
	//block
	"16 16 29 1",
	". c None",
	"! c #876842",
	"# c #E7B96C",
	"$ c #F3C170",
	"% c #DEB167",
	"& c #F9C070",
	"' c #4D2502",
	"( c #F5C873",
	") c #D7A863",
	"= c #FCC672",
	"~ c #FBC473",
	"| c #C3985A",
	"- c #B18852",
	"^ c #A5804E",
	"@ c #BAB6AF",
	"` c #433C39",
	"[ c #AFAAA3",
	"] c #8F6E44",
	"{ c #7C613D",
	"} c #684F32",
	"; c #CE9B56",
	": c #FEC769",
	"+ c #B5B1AB",
	"* c #D9A65C",
	", c #230401",
	"< c #E2AF60",
	"> c #6B6562",
	"? c #5F544B",
	"/ c #594232",
	"....!!!.........",
	"...!#$%!........",
	"..!&&&&&!.......",
	"..!&&&&&!.......",
	"..'&&&&('.......",
	"..')=&~|'.......",
	"...'-&^'@.......",
	"...!&&&!...`.`..",
	"..!&&&&&!..[`.`.",
	".'&]{&'&&'..`.`.",
	".'''}&''''..`.`.",
	"...!;:!'+..`.`..",
	"..!*&,&!',......",
	".,<&,>,&&,......",
	".,,,..?,,/......",
	"................",
};
