/* XPM */
static char *openfile[] = {
	//circle
	"16 16 13 1",
	". c None",
	"! c #BDCD93",
	"# c #8EC320",
	"$ c #7EA91E",
	"% c #322826",
	"& c #8FC420",
	"' c #789F1E",
	"( c #261B1B",
	") c #739E14",
	"= c #433C39",
	"~ c #FDFDFD",
	"| c #A9BBC4",
	"- c #FFFFFF",
	"...!#$%%$#!.....",
	"..&%%####%%&....",
	".!'########'!...",
	"!(##########(!..",
	"#%##########%#..",
	"'###########'$..",
	"%############%..",
	"%############%..",
	"$############$..",
	"#%##########$#..",
	"!%########%%)=(.",
	".!)#######%~~~%.",
	"..&%%####%)~~|=%",
	"...!#$%%$$=~|~|=",
	"..........%%=|-%",
	"............%=%'",
};
