/* XPM */
static char *openfile[] = {
	//copy
	"16 16 3 1",
	". c None",
	"! c #282828",
	"# c #FFFFFF",
	"................",
	".!!!!!!!........",
	".!####!#!.......",
	".!####!##!......",
	".!#!!#!!!!!!!...",
	".!####!####!#!..",
	".!#!!!!####!##!.",
	".!####!#!!#!!!!.",
	".!#!!!!#######!.",
	".!####!#!!!!!#!.",
	".!!!!!!#######!.",
	"......!#!!!!!#!.",
	"......!#######!.",
	"......!!!!!!!!!.",
	"................",
	"................",
};
