/* XPM */
static char *openfile[] = {
	//delete
	"16 16 2 1",
	". c None",
	"! c #9F3503",
	"................",
	".!!!........!!!.",
	".!!!!......!!!!.",
	".!!!!!....!!!!!.",
	"..!!!!!..!!!!!..",
	"...!!!!!!!!!!...",
	"....!!!!!!!!....",
	".....!!!!!!.....",
	".....!!!!!!.....",
	"....!!!!!!!!....",
	"...!!!!!!!!!!...",
	"..!!!!!..!!!!!..",
	".!!!!!....!!!!!.",
	".!!!!......!!!!.",
	".!!!........!!!.",
	"................",
};
