/* XPM */
static char *openfile[] = {
	//event
	"16 16 51 1",
	". c None",
	"! c #CB7170",
	"# c #BF0109",
	"$ c #C11218",
	"% c #C85557",
	"& c #C84F51",
	"' c #C6383C",
	"( c #CC7B79",
	") c #CC7E7C",
	"= c #CC7977",
	"~ c #CD8482",
	"| c #C85355",
	"- c #C21920",
	"^ c #C7494B",
	"@ c #C00911",
	"` c #C00D15",
	"[ c #C21A20",
	"] c #CC7776",
	"{ c #C63D40",
	"} c #C96060",
	"; c #CC7B7A",
	": c #CD8381",
	"+ c #D0A09C",
	"* c #CA6666",
	", c #C8232A",
	"< c #C43236",
	"> c #C53B3F",
	"? c #C32228",
	"/ c #CC7272",
	"_ c #CC8280",
	"1 c #CA6969",
	"2 c #C95F5F",
	"3 c #CB7474",
	"4 c #C3242A",
	"5 c #C21E23",
	"6 c #C63D41",
	"7 c #C85759",
	"8 c #CD7C7A",
	"9 c #CA6868",
	"0 c #C75254",
	"A c #C64749",
	"B c #C64145",
	"C c #C74A4D",
	"D c #CA6464",
	"E c #C5393D",
	"F c #CE918E",
	"G c #C74E51",
	"H c #BF030B",
	"I c #CE8987",
	"J c #CE8F8C",
	"K c #CA6363",
	"................",
	"................",
	"................",
	"...!####$%......",
	"...&#'()=~......",
	"...|#...........",
	"...-#...........",
	"..^##@`[].......",
	"..{#};:+.*,...<>",
	"..?#.....,,../#;",
	"._##....1,}.2#3.",
	".4#####56,,7#8..",
	".90ABCD..E##F...",
	".........GHI....",
	".........JK.....",
	"................",
};
