/* XPM */
static char *openfile[] = {
	//fill
	"16 16 66 1",
	". c None",
	"! c #230401",
	"# c #454140",
	"$ c #77888B",
	"% c #525152",
	"& c #A9BBC4",
	"' c #343936",
	"( c #D9E9F0",
	") c #501C1F",
	"= c #B60814",
	"~ c #2B2723",
	"| c #E5F1F6",
	"- c #E2F4F5",
	"^ c #4E0F10",
	"@ c #CA0109",
	"` c #F20113",
	"[ c #53191C",
	"] c #F3FAFC",
	"{ c #EBF4F4",
	"} c #4E0B0C",
	"; c #FF0115",
	": c #D6010C",
	"+ c #461212",
	"* c #3D3934",
	", c #BC0412",
	"< c #E6EEF0",
	"> c #590608",
	"? c #54090B",
	"/ c #797F83",
	"_ c #7E858A",
	"1 c #4C4541",
	"2 c #FFFFFF",
	"3 c #4F0D0F",
	"4 c #6A7B7C",
	"5 c #626365",
	"6 c #EAEDEE",
	"7 c #650306",
	"8 c #561112",
	"9 c #758687",
	"0 c #D8EAF2",
	"A c #A3ADB3",
	"B c #9B958F",
	"C c #481416",
	"D c #524A47",
	"E c #E8ECED",
	"F c #2C1715",
	"G c #828687",
	"H c #E9F7F9",
	"I c #F3FFFF",
	"J c #A5ACB1",
	"K c #9F9A93",
	"L c #7F0E15",
	"M c #431D1E",
	"N c #BCB7B1",
	"O c #69615B",
	"P c #EEF3F3",
	"Q c #FCFFFF",
	"R c #A8ACB0",
	"S c #A39E97",
	"T c #7E7873",
	"U c #A9AAAC",
	"V c #A49F98",
	"W c #918B84",
	"X c #827F7F",
	"Y c #A6A19A",
	"Z c #9F9992",
	"................",
	"........!!......",
	".......#$%!.....",
	"......#$&$'!....",
	".....#$(&&)=!...",
	"...~~$|-&^@==!..",
	"..~`[]{&};@:+*!.",
	".~`,<<&>;;;?/_1!",
	"~``~<2!;;;34&&5!",
	"~``~~627;8900A~B",
	"~`,CD~E2FGHIJ~K.",
	"~LLMNO~.2PQR~S..",
	".~~...T~.2U~V...",
	".......W~X~Y....",
	"........Z~Y.....",
	"................",
};
