/* XPM */
static char *openfile[] = {
	//four_blocks
	"16 16 3 1",
	". c None",
	"! c #D73500",
	"# c #7E2100",
	"................",
	".......!!.......",
	"......!!!!......",
	".....!!!!!!.....",
	".....##!!##.....",
	"...!...!!...!...",
	"..!!...##...!!..",
	".!!!!!....!!!!!.",
	".!!!!!....!!!!!.",
	".#!!##....##!!#.",
	"..#!...!!...!#..",
	"...#...!!...#...",
	".....!!!!!!.....",
	".....#!!!!#.....",
	"......#!!#......",
	".......##.......",
};

