/* XPM */
static char *openfile[] = {
	//layer_top
	"16 16 4 1",
	". c None",
	"! c #000000",
	"# c #C4C4FF",
	"$ c #FFFFFF",
	".......!!.......",
	".....!!##!!.....",
	"...!!######!!...",
	".!!##########!!.",
	"!##############!",
	".!!##########!!.",
	"...!!######!!...",
	".!!$$!!##!!$$!!.",
	"!$$$$$$!!$$$$$$!",
	".!!$$$$$$$$$$!!.",
	"...!!$$$$$$!!...",
	".!!$$!!$$!!$$!!.",
	"!$$$$$$!!$$$$$$!",
	".!!$$$$$$$$$$!!.",
	"...!!$$$$$$!!...",
	".....!!$$!!.....",
};
