/* XPM */
static char *openfile[] = {
	//layer_bottom
	"16 16 4 1",
	". c None",
	"! c #000000",
	"# c #FFFFFF",
	"$ c #FFC4C4",
	".......!!.......",
	".....!!##!!.....",
	"...!!######!!...",
	".!!##########!!.",
	"!##############!",
	".!!##########!!.",
	"...!!######!!...",
	".!!##!!##!!##!!.",
	"!######!!######!",
	".!!##########!!.",
	"...!!######!!...",
	".!!$$!!##!!$$!!.",
	"!$$$$$$!!$$$$$$!",
	".!!$$$$$$$$$$!!.",
	"...!!$$$$$$!!...",
	".....!!$$!!.....",
};
