/* XPM */
static char *openfile[] = {
	//new
	"16 16 46 1",
	". c #D4D0C8",
	"! c #608DA4",
	"# c #326683",
	"$ c #ACB6B7",
	"% c #E8EFF2",
	"& c #EBF1F4",
	"' c #E9EFF2",
	"( c #F1F4F6",
	") c #FBFDFD",
	"= c #A6B1B3",
	"~ c #FFFFFF",
	"| c #D3D1C9",
	"- c #648EA5",
	"^ c #FDFDFE",
	"@ c #FDFEFE",
	"` c #FEFFFF",
	"[ c #3E6E89",
	"] c #D2CFC8",
	"{ c #FCFFFF",
	"} c #FEFFFE",
	"; c #E6EDF0",
	": c #4A7790",
	"+ c #D6CFC7",
	"* c #628BA2",
	", c #FCFEFE",
	"< c #FDFEFF",
	"> c #FFF9FA",
	"? c #E5EDF1",
	"/ c #47748E",
	"_ c #EA6B76",
	"1 c #E90D1D",
	"2 c #47758E",
	"3 c #D95057",
	"4 c #46758E",
	"5 c #B94351",
	"6 c #D8E6ED",
	"7 c #46748E",
	"8 c #E3ECF0",
	"9 c #E0EAEF",
	"0 c #195778",
	"A c #D5D0C8",
	"B c #E3F0F7",
	"C c #E5F0F6",
	"D c #E5F3F9",
	"E c #D3D0C8",
	"F c #D3D0C9",
	"...!!!!!!!!!#$..",
	"...!%&%''%(!)#=.",
	"...!~~~~~~~!))#|",
	"...-~~^@``~!!![]",
	"...!~~{{^`}~~;:]",
	"+.|*{{{{,<{@>?/.",
	"_.._{_11,_,,,12.",
	"_3.1{_,,,_,_,_4.",
	"_151{_11,_61617.",
	"_.11{_,,,,16187.",
	"1..1{___,,1,190]",
	"A..0BCCCCCCCCC0]",
	"...0BDBCCCCCCC0E",
	"...066666666660F",
	"...066666666660F",
	"..|000000000000]",
};
