/* XPM */
static char *openfile[] = {
	//obstacle
	"16 16 2 1",
	". c None",
	"! c #FF0000",
	"................",
	".!!!!!!!........",
	".!!!!!!!........",
	".!!!!!!!........",
	".!!!!!!!........",
	".!!!!!!!........",
	".!!!!!!!........",
	".!!!!!!!........",
	"........!!!!!!!.",
	"........!!!!!!!.",
	"........!!!!!!!.",
	"........!!!!!!!.",
	"........!!!!!!!.",
	"........!!!!!!!.",
	"........!!!!!!!.",
	"................",
};
