/* XPM */
static char *openfile[] = {
	//open
	"16 16 77 1",
	". c None",
	"! c #44659A",
	"# c #46699E",
	"$ c #3D75B4",
	"% c #6FB7E3",
	"& c #4F73A5",
	"' c #71C0EC",
	"( c #4F74A5",
	") c #67B2E4",
	"= c #466CA4",
	"~ c #B68C66",
	"| c #A25E1A",
	"- c #A98061",
	"^ c #254383",
	"@ c #65AEE2",
	"` c #365D9A",
	"[ c #FFFAAB",
	"] c #F7EEA1",
	"{ c #BB8140",
	"} c #B77B39",
	"; c #848075",
	": c #549DD9",
	"+ c #63AFE4",
	"* c #518CC5",
	", c #BABCC1",
	"< c #FCF7AA",
	"> c #FFFEAE",
	"? c #FFFAAA",
	"/ c #FFF6A7",
	"_ c #818F96",
	"1 c #4784C2",
	"2 c #4169A5",
	"3 c #AAB3C0",
	"4 c #FAEC9A",
	"5 c #FFED9C",
	"6 c #FEED9B",
	"7 c #FEEE9D",
	"8 c #FFED9E",
	"9 c #FFF6A6",
	"0 c #FFFCAC",
	"A c #FFFFAC",
	"B c #687483",
	"C c #B3ABA9",
	"D c #FAE896",
	"E c #FBE891",
	"F c #A67842",
	"G c #907B73",
	"H c #FAE491",
	"I c #B06D22",
	"J c #A6631C",
	"K c #BA8136",
	"L c #B2752A",
	"M c #FFEF98",
	"N c #E6CF82",
	"O c #CE9F51",
	"P c #B07128",
	"Q c #ECCB75",
	"R c #FADE84",
	"S c #B47B35",
	"T c #BFA187",
	"U c #EDC973",
	"V c #A7621B",
	"W c #CEA056",
	"X c #B27127",
	"Y c #CF9C4D",
	"Z c #E3C575",
	"a c #A05B17",
	"b c #BB7C2F",
	"c c #F7DC81",
	"d c #F4D57D",
	"e c #E5BD69",
	"f c #DAAF5D",
	"g c #D0A150",
	"h c #C69045",
	"i c #BD9C80",
	"j c #92470A",
	"k c #C5AF9A",
	"...........!#$..",
	"...........$%&..",
	"...........$'(..",
	"...........$)=..",
	".~|||||-.^$$@```",
	".|[[[[]{};^:+*`,",
	".|<>?/[///_^123.",
	".|4567890A/B^C..",
	".|DEEEEEEEEFG...",
	".|EEH|IIIIIIIIJ.",
	".|EEKLM000000N|.",
	".|EOPQRMMMMMRST.",
	".|UVQRMMMMMRW|..",
	".|XYRRRRRRQZ|...",
	".abcRdQefgh|i...",
	".j|||||||||k....",
};

