/* XPM */
static char *openfile[] = {
	//panorama
	"16 16 7 1",
	". c #C07F7F",
	"! c #8EDEFF",
	"# c #591E00",
	"$ c #FFFFFF",
	"% c #806700",
	"& c #000000",
	"' c #288400",
	"....!....!!!!...",
	".!!!!!..!!##$$$$",
	"!!!!#!!!!#%%#$$$",
	"!!!#%#!!!#%%#!!.",
	"!!#%%%#!#%%%%#!!",
	"$$$$%%%#%%%%%%&!",
	"!$$$$%%%%%%%%%&!",
	"!#%%%%%%%%%%%%&!",
	"!#%%%%%%%%%%%%#!",
	"!#%%%%%%%%%%%%#&",
	"'#'%'%%%'%%%%%#&",
	".''''%'''%'%''''",
	".''''''''''''''&",
	".'''''''''''''''",
	".''''''''''''.'.",
	"...'..'..'..'...",
};
