/* XPM */
static char *openfile[] = {
	//paste
	"16 16 5 1",
	". c None",
	"! c #282828",
	"# c #CDCD5A",
	"$ c #563C21",
	"% c #FFFFFF",
	".......!!.......",
	"..!!!!!##!!!!!..",
	".!$$$!#!!#!$$$!.",
	".!$$$!####!$$$!.",
	".!$$$!!!!!!$$$!.",
	".!$$$$$$$$$$$$!.",
	".!$$$$$$$$$$$$!.",
	".!$$$$$!!!!!!!!!",
	".!$$$$$!%%%%!%!!",
	".!$$$$$!%%%%!%%!",
	".!$$$$$!%!!%!!!!",
	".!$$$$$!%%%%%%%!",
	".!$$$$$!%!!!!!%!",
	".!$$$$$!%%%%%%%!",
	"..!!!!!!!!!!!!!!",
	"................",
};
