/* XPM */
static char *openfile[] = {
	//pen
	"16 16 59 1",
	". c None",
	"! c #160614",
	"# c #BEB9B2",
	"$ c #178F36",
	"% c #212719",
	"& c #169437",
	"' c #A59F99",
	"( c #9A8E8C",
	") c #1F4021",
	"= c #1C642A",
	"~ c #1E4923",
	"| c #222319",
	"- c #212D1C",
	"^ c #1E4A23",
	"@ c #1E5325",
	"` c #817171",
	"[ c #20351D",
	"] c #1F4722",
	"{ c #1A702E",
	"} c #198533",
	"; c #21341D",
	": c #1D6C2D",
	"+ c #20381F",
	"* c #169939",
	", c #21321D",
	"< c #B9B2AC",
	"> c #1C662B",
	"? c #198132",
	"/ c #1D5928",
	"_ c #1E4F24",
	"1 c #225D2B",
	"2 c #998E8B",
	"3 c #1D5827",
	"4 c #1A732E",
	"5 c #1B632A",
	"6 c #178F35",
	"7 c #1F4020",
	"8 c #1B6B2C",
	"9 c #213D20",
	"0 c #A39A96",
	"A c #827777",
	"B c #173C1B",
	"C c #153719",
	"D c #166829",
	"E c #1E4C23",
	"F c #1C652B",
	"G c #AC907D",
	"H c #214122",
	"I c #1C341B",
	"J c #1B732D",
	"K c #2F3326",
	"L c #789F1E",
	"M c #FFFFDD",
	"N c #FFFBCB",
	"O c #2F4228",
	"P c #1C4120",
	"Q c #867C79",
	"R c #EFE8BD",
	"S c #B09C83",
	"...........!!!#.",
	"..........!$%&!'",
	".........()=~&|!",
	".........!$-$^@!",
	"........`[]{};:[",
	"........[$+*,{[<",
	".......!>[?/_1[.",
	"......2)$3},4[..",
	"......)5)67890..",
	".....ABCD}EF[...",
	".....!GGHIJK....",
	"LL...!MNGOPQ....",
	"LL...!MMRG!.....",
	"..LLL!!S!!......",
	"..LLL!!!........",
	"................",
};
