/* XPM */
static char *openfile[] = {
	//rect
	"16 16 15 1",
	". c None",
	"! c #322826",
	"# c #BDCD93",
	"$ c #789F1E",
	"% c #8EC320",
	"& c #90C620",
	"' c #8FC420",
	"( c #8EC420",
	") c #739E14",
	"= c #261B1B",
	"~ c #FFFFFF",
	"| c #7EA91E",
	"- c #A9BBC4",
	"^ c #433C39",
	"@ c #FDFDFD",
	"................",
	".!#!!#!!#!!#!!#.",
	".!$$$$$$$$$$$$!.",
	".#$%%%%%%%%%&$!.",
	".!$%%%%%%%%%%$#.",
	".!$%%%%%%%%%'$!.",
	".#$%%%%%%%%%($!.",
	".!$%%%%%%%%%%$#.",
	".!$%%%%%%%%%%$!.",
	".#$%%%%%%%(%%$!.",
	".!$%%%%%%%%%%)#.",
	".!$%%%%%%%%!!!!=",
	".#$%%%%%%%%!~~~!",
	".!|$$$$$$$$!~~-^",
	".!!#!!#!!#!!~-@-",
	"...........!!^-~",
};
