/* XPM */
static char *openfile[] = {
	static const char* const open_xpm[] = {
	//save
	"16 16 58 1",
	". c None",
	"! c #365D9A",
	"# c #8CABCD",
	"$ c #FEFFFF",
	"% c #E3EEF6",
	"& c #D6DFEB",
	"' c #D0DCE8",
	"( c #CCDAE8",
	") c #CCDBE8",
	"= c #B5C5DA",
	"~ c #254383",
	"| c #65ABDA",
	"- c #94B9DA",
	"^ c #CAD8E6",
	"@ c #C8D6E5",
	"` c #C7D6E6",
	"[ c #AEC0D7",
	"] c #62A3D3",
	"{ c #5EA0D2",
	"} c #86ACD1",
	"; c #C6CBDB",
	": c #C1CFE0",
	"+ c #BDCBDE",
	"* c #BBCADD",
	", c #B8C9DC",
	"< c #B5C6DB",
	"> c #B3C5DA",
	"? c #B3C5DB",
	"/ c #9DB1CE",
	"_ c #5A98CB",
	"1 c #5A9CCF",
	"2 c #90B5D6",
	"3 c #CFDCEA",
	"4 c #CADBE9",
	"5 c #CBDBE9",
	"6 c #B1C4D9",
	"7 c #5895C9",
	"8 c #5799CD",
	"9 c #90B2D4",
	"0 c #5592C7",
	"A c #5494CB",
	"B c #518EC4",
	"C c #5196CF",
	"D c #74A3CF",
	"E c #4F8FC8",
	"F c #D0CECD",
	"G c #4A8AC5",
	"H c #89A4B1",
	"I c #D2D0CD",
	"J c #CDCBCA",
	"K c #498CC9",
	"L c #4888C4",
	"M c #CCCBCB",
	"N c #478BC9",
	"O c #4581C0",
	"P c #C9CACB",
	"Q c #C6C7C9",
	"R c #4385C4",
	"................",
	"...!!!!!!!!!!...",
	".!!#$%%&&'()=!!.",
	".~|-$%%&&^@`[]~.",
	".~{};:+*,<>?/_~.",
	".~12$%%&&34567~.",
	".~89$%%4444460~.",
	".~A9/////////B~.",
	".~CDDDDDDDDDDC~.",
	".~C!!!!!!!!!!C~.",
	".~E!FFFFFFFF!C~.",
	".~G!FHHFFFIJ!K~.",
	".~L!FHHFFFFM!N~.",
	".~O!FFFFFPFQ!R~.",
	".~!!!!!!!!!!!!~.",
	"................",
};
