/* XPM */
static char *openfile[] = {
	//sky
	"16 16 3 1",
	". c #008080",
	"! c #8EDEFF",
	"# c #FFFFFF",
	"...!.!.!.!.!.!..",
	"..!.!.!!!!!.!.!.",
	".!.!.!!.!#!!!!.!",
	"..!.!!!####.###.",
	".!!!!!##!#####.#",
	"!.!#!#!########.",
	".!!#############",
	"!###############",
	"!#############.#",
	"###############.",
	".#############.#",
	"#############.#.",
	".#.#########.#..",
	"..#.#####.#.#...",
	"...#.###.#......",
	"................",
};
