/* XPM */
static char *openfile[] = {
	//tile_set
	"16 16 9 1",
	". c None",
	"! c #C0B5AC",
	"# c #C2D1B3",
	"$ c #8D7664",
	"% c #78975A",
	"& c #7A605C",
	"' c #606F7A",
	"( c #6B362E",
	") c #304F65",
	"................",
	".!!!!!!!#######.",
	".!$$$$$!#%%%%%#.",
	".!$$$$$!#%%%%%#.",
	".!$$$$$!#%%%%%#.",
	".!$$$$$!#%%%%%#.",
	".!$$$$$!#%%%%%#.",
	".!!!!!!!#######.",
	".&&&&&&&'''''''.",
	".&(((((&')))))'.",
	".&(((((&')))))'.",
	".&(((((&')))))'.",
	".&(((((&')))))'.",
	".&(((((&')))))'.",
	".&&&&&&&'''''''.",
	"................",
};

