/* XPM */
static char *openfile[] = {
	//undo
	"16 16 68 1",
	". c None",
	"! c #EF85B4",
	"# c #EA7DAB",
	"$ c #F9D4E4",
	"% c #EB88B3",
	"& c #FEF8FB",
	"' c #DCB2BD",
	"( c #EC88B4",
	") c #FFFFFF",
	"= c #FBE7F0",
	"~ c #EE90B8",
	"| c #E489B0",
	"- c #D9C1C3",
	"^ c #E780AC",
	"@ c #FEF6FA",
	"` c #FDF1F6",
	"[ c #FCECF3",
	"] c #F9D9E7",
	"{ c #F3A8C9",
	"} c #E780AB",
	"; c #EC88B3",
	": c #FEF7FA",
	"+ c #FADAE7",
	"* c #F9D5E4",
	", c #F2A3C5",
	"< c #E585AD",
	"> c #EB85B2",
	"? c #EE8AB6",
	"/ c #F6BED6",
	"_ c #F8CBDE",
	"1 c #F6C6DB",
	"2 c #ED85B2",
	"3 c #DCB1BD",
	"4 c #EA7BAA",
	"5 c #DF9EB6",
	"6 c #EE89B4",
	"7 c #F7C1D8",
	"8 c #F7C3D9",
	"9 c #F09DC1",
	"0 c #E77BA9",
	"A c #F5B4D1",
	"B c #F6BCD5",
	"C c #F2A4C7",
	"D c #E87CAB",
	"E c #F4B2CF",
	"F c #F2A7C8",
	"G c #F19DC3",
	"H c #E289AE",
	"I c #ED8DB8",
	"J c #EA88B2",
	"K c #E88EB5",
	"L c #F2A4C6",
	"M c #EB78AB",
	"N c #D9BFC2",
	"O c #E989B1",
	"P c #F29DC2",
	"Q c #EE81B1",
	"R c #E198B3",
	"S c #E98CB4",
	"T c #ED7FB0",
	"U c #E391B1",
	"V c #E886AF",
	"W c #EF8DB8",
	"X c #EF92BA",
	"Y c #EE8CB7",
	"Z c #ED81B0",
	"a c #E881AD",
	"b c #DEA6B9",
	"....!!..........",
	"...#$!..........",
	"..%$&!!!!'......",
	".($)&====~|-....",
	"^$)&&@`[=]{}-...",
	".;$:&===$+*,<...",
	"..>$&!!!?/_123..",
	"...4$!..56789!..",
	"....!!...0ABC!..",
	".........DEFG!..",
	"........HFFFI!..",
	"....!JKFFFFLMN..",
	"....OPFFFFFQR...",
	"....SPPFFPTU....",
	"....VWXYZab.....",
	"................",
};
