/* XPM */
static char *openfile[] = {
	//zoom_in
	"16 16 41 1",
	". c None",
	"! c #535991",
	"# c #3F4383",
	"$ c #252871",
	"% c #575D94",
	"& c #3B3F81",
	"' c #8089B0",
	"( c #B5C1D4",
	") c #DAE8EE",
	"= c #686FA0",
	"~ c #C6D3E0",
	"| c #E9F8F8",
	"- c #FFFFFF",
	"^ c #262872",
	"@ c #DAE7ED",
	"` c #B2BFD3",
	"[ c #424785",
	"] c #575C93",
	"{ c #BDCADA",
	"} c #4E5690",
	"; c #C0CFDC",
	": c #6872A1",
	"+ c #505989",
	"* c #434588",
	", c #50578B",
	"< c #333E68",
	"> c #2A385D",
	"? c #28375A",
	"/ c #283859",
	"_ c #3F4384",
	"1 c #545A91",
	"2 c #28385C",
	"3 c #233356",
	"4 c #203254",
	"5 c #1F3052",
	"6 c #27365B",
	"7 c #213053",
	"8 c #1E3051",
	"9 c #273959",
	"0 c #203153",
	"A c #1E2F51",
	"....!#$$#!......",
	"..%&'())('&%....",
	".%=~||||||~=%...",
	".&~||-^^--|~&...",
	"!'||--^^---|'!..",
	"#(|---^^----(#..",
	"$)|^^^^^^^^-)$..",
	"$)|^^^^^^^^-@^..",
	"#(|---^^----`[..",
	"!'|---^^----']..",
	".&~|--^^---{}...",
	".%=~||----;:+...",
	"..%&'())('*,<>?/",
	"....!#$$_1..2345",
	"............6758",
	"............90A8",
};

};
