/* XPM */
static char *openfile[] = {
	//blank
	"16 16 2 1",
	". c None",
	"! c #323232",
	"................",
	"................",
	"................",
	"................",
	"................",
	"................",
	"................",
	"..!!!!!!!!!!!!..",
	"..!!!!!!!!!!!!..",
	"................",
	"................",
	"................",
	"................",
	"................",
	"................",
	"................",
};
