/* XPM */
static char *openfile[] = {
	//condition
	"16 16 4 1",
	". c None",
	"! c #323232",
	"# c #C04200",
	"$ c #F4F5EB",
	"................",
	".......!........",
	"......!#!.......",
	".....!###!......",
	"....!#####!.....",
	".....!###!......",
	"......!#!.......",
	".......!........",
	"......!.!.......",
	".....!...!......",
	"..!!!!!.!!!!!...",
	"..!$$$!.!$$$!...",
	"..!$$$!.!$$$!...",
	"..!$$$!.!$$$!...",
	"..!!!!!.!!!!!...",
	"................",
};
