/* XPM */
static char *openfile[] = {
	//mes
	"16 16 3 1",
	". c None",
	"! c #323232",
	"# c #FFFFFF",
	"..!!!!!!!!!!!!..",
	".!############!.",
	"!##############!",
	"!##############!",
	"!##!!##!!##!!##!",
	"!##!!##!!##!!##!",
	"!##############!",
	"!##############!",
	".!############!.",
	"..!!!!!!!!###!..",
	"..........!#!...",
	"..........!#!...",
	".........!#!....",
	"........!!!.....",
	"................",
	"................",
};
