/* XPM */
static char *openfile[] = {
	//chara
	"16 16 3 1",
	". c None",
	"! c #000000",
	"# c #F2EE7B",
	".....!!!!!......",
	"....!#####!.....",
	"...!#######!....",
	"...!#######!....",
	"...!#######!....",
	"...!#######!....",
	"....!#####!.....",
	".....!###!......",
	"....!#####!.....",
	"...!#######!....",
	"...!#!###!#!....",
	"..!##!#!#!##!...",
	"..!#!!#!#!!#!...",
	"...!!##!##!!....",
	"....!##!##!.....",
	"....!!!.!!!.....",
};
