/* XPM */
static char *openfile[] = {
	//switch
	"16 16 10 1",
	". c None",
	"! c #323232",
	"# c #D4D1C3",
	"$ c #F4F5EB",
	"% c #C04200",
	"& c #EE8128",
	"' c #FFA953",
	"( c #E56000",
	") c #A9A9A2",
	"= c #8F8F95",
	"................",
	"................",
	"......!!!!......",
	"....!!#$$#!!....",
	"...!$#%%%%#$!...",
	"...!#%&&&&%#!...",
	"..!#%&''''&%#!..",
	"..!#%&''''&%#!..",
	"..!#%(&&&&(%#!..",
	"..!)%((((((%)!..",
	"...!)%((((%)!...",
	"...!==%%%%==!...",
	"....!!====!!....",
	"......!!!!......",
	"................",
	"................",
};
